<?xml version="1.0" encoding="UTF-8" standalone="no"?>
<svg style="enable-background:new 0 0 387 100" xmlns="http://www.w3.org/2000/svg" xml:space="preserve" viewBox="0 0 387 100" version="1.1" y="0px" x="0px" xmlns:xlink="http://www.w3.org/1999/xlink">
		<path d="m40.4 9.38l3.45 1.72 3.69-4.89 33.1 19s-18.3 10.7-30.6 22.3c-3.32 3.14-4.11 5.13-8.53 9.06-10.4 9.18-10.4 18.7-10.4 18.7s-0.479-6.28 15.3-21.2c4.28-4.06 10.5-7.98 16.8-12.9 4.52-3.54 24.7-15.6 25.7-16.1l-43.1-24.2-5.4 8.48z" fill="#78C044"/>
		<path d="m23.8 13.1l3.45 1.72 3.07-5.75 34.7 17.7s-17.3 17.2-26.4 29.8c-5.7 7.94-7.46 15.9-7.46 15.9s1.62-3.06 4.57-7.12c4.27-5.86 10.8-13.8 14.4-17.7 5.05-5.4 23-21.6 23-21.6l-43.8-22.6-5.5 9.6z" fill="#7EBE42"/>
		<path d="m50.9 29.9s-30.9 40.9-23.8 56.7c0 0-9.2-4.61-14.8-22.7-6.72-21.9 7.29-48 7.29-48l31.3 14m-44.1 29.6c9.03 42.2 40.9 44.7 57.3 39.4 19.3-6.17 23.2-26.1 23-25.6-0.148 0.369-9.43 20-27.1 21.8-6.39 0.621-17.4 0.383-24.1-3.28-19-10.4 22.4-63.1 22.4-63.1l-40.7-19.4c0-0.02-15.4 28.7-10.8 50.2zm10.4-10.5c-5.06 0-9.16 4.1-9.16 9.16s4.1 9.16 9.16 9.16c5.06 0 9.16-4.1 9.16-9.16s-4.1-9.2-9.2-9.2z" fill="#7EBE42"/>
		<path d="m136 72.8c-3.95 2.06-9.31 3.13-14.2 3.13-11.1 0-16.5-6.75-16.5-16.6 0-12.1 8.9-25.3 22.7-25.3 7.91 0 12.9 4.61 12.9 11.3 0 10.3-10.8 13.6-26.3 13.3-0.165 1.4 0.165 4.12 1.07 5.68 1.56 2.72 4.45 4.12 8.24 4.12 4.53 0 8.15-1.15 11-2.64v7zm-9-31.5c-6.01 0-9.97 5.35-11.1 10.2 9.88 0.165 16.2-1.24 16.2-6.01 0-2.7-2-4.2-5-4.2z" fill="#23326A"/>
		<path d="m167 75.1c0.082-2.39 0.412-5.6 0.741-9.06h-0.247c-3.95 7.41-9.22 9.97-14.3 9.97-7.17 0-11.9-5.6-11.9-13.7 0-13.7 9.55-28.2 28.2-28.2 4.36 0 9.06 0.824 12.1 1.81l-4.12 20.9c-1.15 6.01-1.81 13.5-1.65 18.3h-9zm3-33.2c-0.988-0.247-2.22-0.412-3.95-0.412-8.9 0-15.7 9.97-15.7 19.1 0 4.2 1.56 7.66 5.76 7.66 4.45 0 9.88-5.6 11.8-15.8l2-10.6z" fill="#23326A"/>
		<path d="m182 66.1c2.06 1.15 6.01 2.72 9.64 2.72 3.87-0.082 6.18-2.31 6.18-4.94 0-2.55-1.32-4.12-5.27-6.18-4.61-2.39-7.91-5.85-7.91-10.5 0-7.74 6.75-13.2 16.2-13.2 4.2 0 7.66 0.988 9.47 2.06l-2.47 6.92c-1.48-0.824-4.2-1.81-7.5-1.81-3.62 0-6.1 1.98-6.1 4.7 0 2.22 1.81 3.79 5.19 5.52 4.36 2.39 8.32 5.68 8.32 10.8 0 8.81-7.41 13.7-17 13.7-4.7 0-9.06-1.32-11.2-2.88l3-6.9z" fill="#23326A"/>
		<path d="m221 35l3.13 19.4c0.741 4.28 1.24 7.25 1.56 9.97h0.165c0.988-2.47 1.98-5.19 3.87-9.55l8.65-19.8h10.1l-14.7 29.6c-4.86 9.8-9.31 16.9-14.7 22.1-4.61 4.53-9.88 6.42-12.4 6.92l-2.22-8.24c1.81-0.577 4.61-1.65 7.08-3.46 2.72-1.98 5.27-4.78 7.08-7.99 0.329-0.659 0.329-1.15 0.165-1.89l-7.99-37h10z" fill="#23326A"/>
		<path d="m272 73.7c-2.31 1.15-6.42 2.22-11.5 2.22-10 0-16.2-6.42-16.2-16 0-14 10.6-25.9 25.5-25.9 3.54 0 6.67 0.906 8.15 1.56l-2.47 7.5c-1.48-0.659-3.38-1.24-6.01-1.24-9.31 0-15.2 8.57-15.2 16.9 0 6.01 3.46 9.39 8.81 9.39 3.71 0 6.51-0.988 8.57-1.89l-1 7.4z" fill="#77C043"/>
		<path d="m300 75.1c0.082-2.39 0.412-5.6 0.741-9.06h-0.247c-3.95 7.41-9.22 9.97-14.3 9.97-7.16 0-11.9-5.6-11.9-13.7 0-13.7 9.55-28.2 28.3-28.2 4.36 0 9.06 0.824 12.1 1.81l-4.12 20.9c-1.15 6.01-1.81 13.5-1.65 18.3h-9zm4-33.2c-0.988-0.247-2.22-0.412-3.95-0.412-8.9 0-15.7 9.97-15.7 19.1 0 4.2 1.56 7.66 5.76 7.66 4.45 0 9.88-5.6 11.8-15.8l2-10.6z" fill="#77C043"/>
		<path d="m315 66.1c2.06 1.15 6.01 2.72 9.64 2.72 3.87-0.082 6.18-2.31 6.18-4.94 0-2.55-1.32-4.12-5.27-6.18-4.61-2.39-7.91-5.85-7.91-10.5 0-7.74 6.75-13.2 16.2-13.2 4.2 0 7.66 0.988 9.47 2.06l-2.47 6.92c-1.48-0.824-4.2-1.81-7.5-1.81-3.62 0-6.1 1.98-6.1 4.7 0 2.22 1.81 3.79 5.19 5.52 4.36 2.39 8.32 5.68 8.32 10.8 0 8.81-7.41 13.7-17 13.7-4.7 0-9.06-1.32-11.2-2.88l2-6.9z" fill="#77C043"/>
		<path d="m342 75.1l11-58.5h9.64l-4.7 24.4h0.165c3.38-4.2 7.82-6.92 13.4-6.92 5.52 0 10 3.46 10 10.8 0 2.06-0.247 4.86-0.659 7.08l-4.45 23.1h-9.55l4.28-22.5c0.247-1.56 0.494-3.3 0.494-5.27 0-3.05-1.4-5.44-5.02-5.44-4.7 0-9.97 5.6-11.5 14.1l-3.62 19.1h-8z" fill="#77C043"/>
</svg>
